<svg width="800" height="800" viewBox="0 0 800 800" fill="none" xmlns="http://www.w3.org/2000/svg">
<g clip-path="url(#clip0_358_29)">
<path d="M244.76 370.782C244.694 347.025 244.629 323.303 244.568 301.076C244.367 301.076 244.254 301.076 244.254 301.076C244.242 297.705 242.892 294.477 240.501 292.102C238.109 289.726 234.872 288.397 231.502 288.407H101.066C98.2198 288.34 95.3931 288.896 92.7842 290.037C89.5291 291.737 86.7413 294.211 84.6655 297.24C65.9216 322.599 35.2341 368.127 18.3777 396.72C13.9814 403.483 11.4741 411.298 11.1155 419.356C11.0044 446.958 10.6099 472.401 10.368 507.003C9.74805 506.911 9.1155 506.953 8.51343 507.128C7.91136 507.302 7.35394 507.604 6.87918 508.013C6.40442 508.422 6.02348 508.929 5.76234 509.499C5.5012 510.068 5.366 510.688 5.36597 511.315C5.35071 518.91 5.27443 527.506 5.2134 538.558C5.20192 540.848 5.64164 543.118 6.50743 545.238C7.37323 547.358 8.64815 549.287 10.2594 550.914C11.8706 552.541 13.7866 553.835 15.8979 554.722C18.0093 555.609 20.2746 556.071 22.5645 556.082C40.5433 556.165 63.2757 556.3 66.072 556.3L219.789 556.685C223.54 556.685 230.578 556.685 245.18 556.67C245.196 538.341 244.978 454.501 244.76 370.782Z" fill="white"/>
<path d="M144.134 256.952C130.771 264.761 119.111 271.76 111.794 276.459C107.23 279.062 103.87 283.353 102.437 288.409C133.997 288.409 203.436 288.409 231.502 288.409C234.872 288.399 238.109 289.728 240.501 292.104C242.892 294.48 244.242 297.708 244.254 301.078H244.568C244.472 266.511 244.383 235.59 244.319 213.957L237.596 213.49C234.719 213.267 231.83 213.267 228.954 213.49C222.439 214.085 216.129 216.08 210.456 219.338C191.231 229.889 165.508 244.459 144.134 256.952Z" fill="white"/>
<path d="M696.678 556.69C711.775 556.69 735.255 556.65 785.905 556.659C788.217 556.659 790.435 555.741 792.07 554.106C793.705 552.471 794.623 550.253 794.623 547.941C794.571 458.744 794.207 277.986 794.152 198.072C794.153 196.929 793.928 195.798 793.49 194.742C793.053 193.686 792.411 192.727 791.603 191.919C790.794 191.111 789.835 190.471 788.778 190.035C787.722 189.598 786.59 189.374 785.447 189.376C719.487 189.376 317.473 189.278 252.976 189.267C251.832 189.265 250.698 189.489 249.64 189.927C248.582 190.364 247.621 191.007 246.813 191.817C246.004 192.627 245.363 193.589 244.928 194.647C244.492 195.706 244.27 196.84 244.274 197.985C244.463 264.896 245.2 522.82 245.187 556.679C315.672 556.624 514.172 556.491 535.217 556.507" fill="white"/>
<path d="M618.111 492.762C610.031 492.601 602.001 494.067 594.499 497.073C586.998 500.08 580.177 504.564 574.445 510.261C568.712 515.957 564.184 522.749 561.131 530.231C558.077 537.714 556.56 545.734 556.67 553.815C556.67 590.649 582.321 616.021 618.111 616.021C655.278 616.021 679.549 590.416 679.549 553.815C679.549 520.673 654.306 492.762 618.111 492.762Z" fill="#211715"/>
<path d="M618.111 533.944C615.429 533.891 612.763 534.378 610.274 535.376C607.784 536.374 605.52 537.863 603.618 539.755C601.716 541.646 600.214 543.901 599.202 546.385C598.189 548.869 597.687 551.532 597.726 554.214C597.726 566.437 606.237 574.854 618.113 574.854C630.445 574.854 638.498 566.354 638.498 554.214C638.538 551.531 638.038 548.867 637.026 546.382C636.014 543.897 634.512 541.641 632.609 539.749C630.706 537.857 628.442 536.368 625.951 535.371C623.46 534.374 620.793 533.888 618.111 533.944Z" fill="white"/>
<path d="M142.322 492.762C134.242 492.6 126.211 494.066 118.709 497.071C111.206 500.077 104.385 504.562 98.6522 510.258C92.9188 515.955 88.3904 522.747 85.3363 530.23C82.2823 537.713 80.7652 545.734 80.8753 553.815C80.8753 590.649 106.526 616.021 142.316 616.021C179.483 616.021 203.754 590.416 203.754 553.815C203.754 520.673 178.513 492.762 142.322 492.762Z" fill="#211715"/>
<path d="M142.322 533.944C139.64 533.891 136.975 534.378 134.485 535.376C131.996 536.374 129.732 537.863 127.83 539.755C125.928 541.646 124.426 543.901 123.413 546.385C122.401 548.869 121.899 551.532 121.937 554.214C121.937 566.437 130.448 574.854 142.325 574.854C154.656 574.854 162.71 566.354 162.71 554.214C162.75 551.531 162.249 548.867 161.238 546.382C160.226 543.897 158.724 541.641 156.821 539.749C154.918 537.857 152.654 536.368 150.163 535.371C147.671 534.374 145.005 533.888 142.322 533.944Z" fill="white"/>
<path d="M15.6075 505.835C15.7238 489.694 15.8727 473.553 16.0543 457.413C16.1226 450.473 16.1851 443.534 16.2417 436.594C16.2694 433.159 16.2926 429.723 16.3115 426.285C16.1483 422.564 16.2649 418.836 16.6602 415.132C17.7848 408.075 21.3331 401.938 24.9424 395.905C27.9937 390.819 31.1068 385.765 34.2816 380.742C41.7443 368.894 49.3944 357.165 57.2319 345.556C64.6597 334.495 72.2248 323.525 79.9272 312.645C83.1834 308.068 86.2827 303.171 89.953 298.914C91.8906 296.385 94.6503 294.612 97.7556 293.901C100.166 293.586 102.601 293.498 105.029 293.637H228.745C231.125 293.323 233.543 293.761 235.662 294.888C236.678 295.573 237.512 296.493 238.093 297.571C238.674 298.649 238.985 299.852 238.999 301.076C239.217 307.791 249.679 307.833 249.461 301.076C249.405 297.447 248.268 293.917 246.194 290.939C244.121 287.96 241.206 285.667 237.822 284.355C233.193 282.555 227.777 283.176 222.89 283.176H113.463C108.594 283.176 103.566 282.827 98.7146 283.285C89.9028 284.117 84.2732 288.986 79.2101 295.869C71.4511 306.412 63.9535 317.146 56.5584 327.945C48.2937 340.02 40.1888 352.203 32.2438 364.496C25.1015 375.57 17.3533 386.696 11.4446 398.496C7.70905 405.903 5.79827 414.095 5.87161 422.39C5.83383 429.846 5.7808 437.302 5.71251 444.758C5.57084 460.571 5.38994 476.383 5.25263 492.196C5.2134 496.739 5.1778 501.283 5.14583 505.829C5.09788 512.561 15.5596 512.57 15.6075 505.829V505.835Z" fill="#211715"/>
<path d="M217.851 321.394C217.809 319.298 217.289 317.239 216.332 315.373C215.374 313.508 214.005 311.886 212.326 310.629C209.201 308.589 205.48 307.66 201.762 307.992C194.1 307.98 186.44 307.966 178.781 307.948C163.191 307.913 147.6 307.882 132.011 307.855C124.688 307.855 116.005 306.765 109.708 311.259C104.105 315.256 100.284 321.895 96.3411 327.442C87.1022 340.432 78.2272 353.681 69.4699 367C64.7127 374.236 60.0006 381.501 55.3335 388.795C51.2818 395.138 47.2497 401.317 49.6668 409.15C50.7022 412.523 52.6954 415.522 55.404 417.783C58.1125 420.045 61.4197 421.47 64.9234 421.887C68.7202 422.021 72.5119 421.505 76.1348 420.361L87.6645 417.717C119.945 410.327 152.246 403.014 184.489 395.465C191.246 393.879 198.002 392.281 204.759 390.67C208.464 389.78 212.028 388.902 214.671 385.931C217.174 382.919 218.409 379.052 218.115 375.147C218.041 360.105 217.968 345.067 217.897 330.031C217.881 327.157 217.867 324.282 217.856 321.405C217.823 314.676 207.361 314.661 207.394 321.405C207.455 334.322 207.517 347.238 207.579 360.154C207.594 363.611 207.61 367.068 207.629 370.524C207.629 372.737 208.412 376.581 207.27 378.46C206.16 380.284 202.854 380.38 200.93 380.84C197.897 381.566 194.864 382.289 191.83 383.006C162.884 389.854 133.877 396.443 104.88 403.058C97.4934 404.745 90.107 406.434 82.7213 408.125L72.1071 410.56C69.6505 411.484 66.983 411.696 64.4112 411.172C62.5283 410.49 60.991 409.091 60.1339 407.281C59.2768 405.471 59.1691 403.395 59.8342 401.506C61.3091 398.475 63.0787 395.597 65.1174 392.912C67.2301 389.607 69.3536 386.312 71.4881 383.028C79.8357 370.153 88.3409 357.383 97.0037 344.717C100.633 339.436 104.299 334.181 108.052 328.989C109.684 326.731 111.26 324.382 113.095 322.281C114.038 321.082 115.236 320.109 116.602 319.433C117.969 318.756 119.469 318.393 120.994 318.371C127.247 318.015 133.593 318.316 139.855 318.327C147.027 318.337 154.199 318.352 161.371 318.371L183.602 318.421C190.392 318.434 197.248 318.164 204.031 318.456C204.447 318.416 204.866 318.462 205.264 318.59C205.661 318.719 206.028 318.927 206.342 319.202C206.656 319.477 206.911 319.813 207.091 320.19C207.271 320.567 207.372 320.976 207.387 321.394C207.721 328.096 218.185 328.135 217.851 321.394Z" fill="#211715"/>
<path d="M696.678 561.921C720.78 561.921 744.883 561.91 768.986 561.89C774.26 561.89 779.539 561.921 784.815 561.89C786.998 561.996 789.176 561.613 791.192 560.769C793.208 559.926 795.01 558.643 796.467 557.015C801.103 551.513 799.847 543.643 799.841 536.935C799.832 523.759 799.819 510.584 799.802 497.411C799.764 466.477 799.72 435.544 799.669 404.612C799.619 372.041 799.568 339.47 799.516 306.898C799.473 278.709 799.434 250.521 799.401 222.332C799.401 216.682 799.395 211.032 799.383 205.382C799.383 198.21 799.819 190.668 792.877 186.296C787.677 183.01 779.831 184.139 773.857 184.139H731.099L671.191 184.117L600.082 184.104L522.814 184.086L445.301 184.071L373.464 184.056L312.335 184.043H267.873C263.148 184.043 258.421 183.999 253.707 184.043C251.79 183.99 249.883 184.323 248.099 185.024C246.315 185.725 244.691 186.778 243.323 188.121C241.955 189.464 240.872 191.068 240.138 192.839C239.405 194.61 239.036 196.511 239.054 198.428C239.017 201.71 239.073 204.997 239.082 208.281C239.136 227.316 239.189 246.35 239.243 265.384L239.461 340.665C239.535 367.32 239.608 393.976 239.679 420.631C239.74 444.689 239.8 468.746 239.86 492.804C239.899 509.761 239.934 526.718 239.965 543.676C239.965 548.015 239.969 552.353 239.978 556.692C239.997 558.073 240.555 559.392 241.532 560.369C242.508 561.346 243.827 561.903 245.209 561.923L298.966 561.884L368.057 561.836L439.464 561.792C459.294 561.782 479.123 561.771 498.952 561.759C510.444 561.759 521.936 561.759 533.428 561.759H535.246C541.976 561.759 541.987 551.298 535.246 551.298C525.105 551.298 514.963 551.298 504.819 551.298L447.694 551.328L376.982 551.372L306.922 551.418L250.503 551.459H245.215L250.446 556.69C250.446 544.999 250.428 533.309 250.391 521.619C250.349 500.941 250.301 480.265 250.248 459.59C250.182 434 250.115 408.409 250.047 382.819L249.829 304.522C249.768 282 249.705 259.479 249.64 236.957L249.537 211.195L249.507 200.812C249.189 199.106 249.446 197.343 250.237 195.799C250.762 195.262 251.411 194.861 252.127 194.633C252.843 194.405 253.604 194.357 254.343 194.491H288.306H341.295L407.184 194.504L481.673 194.539L558.505 194.557L632.609 194.572L698.607 194.585L751.133 194.596C762.388 194.596 773.65 194.472 784.903 194.596C790.367 194.659 788.928 201.285 788.93 205.108C788.93 210.65 788.936 216.191 788.948 221.731C788.961 234.702 788.977 247.672 788.996 260.64C789.038 291.153 789.084 321.673 789.135 352.201C789.186 384.279 789.235 416.357 789.281 448.435C789.323 476.451 789.358 504.467 789.386 532.484V541.259C789.386 543.602 790.085 547.305 789.087 549.434C787.67 552.459 783.165 551.422 780.546 551.422H765.206C750.676 551.422 736.139 551.427 721.594 551.437C713.289 551.437 704.983 551.442 696.678 551.452C689.948 551.452 689.934 561.914 696.678 561.914V561.921Z" fill="#211715"/>
<path d="M219.789 561.921C228.274 561.921 236.76 561.915 245.246 561.905C246.633 561.905 247.963 561.354 248.944 560.373C249.925 559.392 250.476 558.062 250.476 556.674C250.476 555.287 249.925 553.957 248.944 552.976C247.963 551.995 246.633 551.444 245.246 551.444C236.76 551.444 228.274 551.449 219.789 551.459C218.402 551.459 217.071 552.01 216.09 552.991C215.109 553.972 214.558 555.302 214.558 556.69C214.558 558.077 215.109 559.407 216.09 560.388C217.071 561.369 218.402 561.921 219.789 561.921Z" fill="#211715"/>
<path d="M59.1542 501.829C48.5473 501.829 37.9403 501.807 27.3333 501.764L17.9745 501.742C14.5231 501.435 11.0484 501.508 7.61305 501.96C6.18993 502.29 4.86106 502.941 3.72788 503.863C2.59469 504.785 1.68714 505.954 1.0745 507.28C-0.272443 510.153 0.132947 513.52 0.11769 516.613C0.0886299 522.884 0.0493986 529.152 -3.79179e-06 535.415C-0.0370556 541.422 0.653851 547.006 4.34377 551.969C7.68483 556.564 12.6296 559.737 18.199 560.859C24.1883 561.977 30.7028 561.352 36.7771 561.382C46.5392 561.435 56.3056 561.528 66.0698 561.535C72.8002 561.535 72.8111 551.073 66.0698 551.073C59.0758 551.073 52.0839 551.003 45.092 550.966L28.6977 550.879C24.2558 550.857 19.7965 551.365 15.9105 548.83C14.4255 547.85 13.1721 546.558 12.2374 545.044C11.3028 543.531 10.7095 541.831 10.4987 540.064C10.1675 534.161 10.1828 528.244 10.5445 522.343C10.559 519.918 10.5721 517.491 10.5837 515.063C10.5837 514.076 10.6905 513.025 10.5837 512.042C10.3244 509.403 10.1805 513.466 9.71192 512.186C12.4618 512.398 15.2237 512.404 17.9745 512.204L27.3333 512.225C37.9403 512.252 48.5473 512.273 59.1542 512.291C65.8868 512.291 65.8977 501.829 59.1542 501.829Z" fill="#211715"/>
<path d="M215.868 428.929C215.851 426.737 215.236 424.591 214.089 422.723C212.942 420.854 211.307 419.335 209.36 418.327C205.57 416.423 200.951 417.037 196.839 417.037H183.001C179.108 417.037 174.422 416.383 170.715 417.75C168.67 418.544 166.879 419.878 165.534 421.611C164.189 423.344 163.341 425.41 163.079 427.588C162.818 429.766 163.153 431.974 164.05 433.976C164.946 435.978 166.37 437.699 168.169 438.954C171.785 441.439 176.257 440.944 180.416 440.944H200.515C202.853 441.127 205.204 440.954 207.49 440.432C209.927 439.65 212.052 438.114 213.56 436.046C215.067 433.977 215.878 431.484 215.877 428.924C215.975 423.312 207.257 423.312 207.159 428.924C207.193 429.73 206.919 430.519 206.392 431.13C205.866 431.741 205.127 432.129 204.325 432.215C201.307 432.403 198.281 432.403 195.263 432.215H175.83C173.888 432.215 172.051 431.825 171.637 429.6C171.479 428.86 171.586 428.089 171.938 427.42C172.291 426.751 172.867 426.227 173.566 425.938C174.711 425.666 175.895 425.592 177.066 425.72H202.887C205.049 425.72 207.095 426.344 207.15 428.894C207.272 434.526 215.99 434.545 215.868 428.929Z" fill="#211715"/>
<path d="M270.615 523.084C281.152 523.084 291.691 523.088 302.231 523.097L362.168 523.127L432.834 523.164L497.603 523.195C511.369 523.195 525.134 523.2 538.898 523.21H541.514C548.244 523.21 548.255 512.749 541.514 512.749C529.108 512.749 516.702 512.749 504.296 512.749L441.481 512.718L370.646 512.681L308.423 512.648C296.414 512.648 284.405 512.643 272.396 512.633H270.62C263.889 512.633 263.876 523.095 270.62 523.095L270.615 523.084Z" fill="#211715"/>
<path d="M270.615 231.338H287.881H324.85L376.575 231.351L438.8 231.369L506.639 231.386L575.102 231.406L640.08 231.423L696.58 231.439H739.9H765.335H768.279C775.01 231.439 775.021 220.977 768.279 220.977H747.87H708.443L654.945 220.979L591.614 220.962L523.354 220.944L455.135 220.925L391.094 220.907L336.21 220.892H295.187H272.738H270.622C263.891 220.892 263.878 231.354 270.622 231.354L270.615 231.338Z" fill="#211715"/>
<path d="M691.229 523.084C716.91 523.084 742.592 523.21 768.273 523.21C775.003 523.21 775.014 512.748 768.273 512.748C742.592 512.748 716.91 512.624 691.229 512.622C684.497 512.622 684.486 523.084 691.229 523.084Z" fill="#211715"/>
<path d="M12.299 460.128C15.7317 460.128 19.1623 460.176 22.5929 460.218L28.3599 460.29C29.3822 460.139 30.4261 460.269 31.3807 460.665C33.0306 461.754 32.5729 464.019 32.5729 465.895V505.844C32.5729 512.576 43.0345 512.587 43.0345 505.844V469.886C43.0345 463.062 43.4704 455.645 36.6442 451.67C32.7603 449.403 28.2422 449.826 23.9202 449.774C20.0472 449.726 16.1742 449.671 12.299 449.667C5.56866 449.667 5.55776 460.128 12.299 460.128Z" fill="#211715"/>
<path d="M107.426 289.991C108.66 285.29 112.003 282.504 115.974 279.991C119.243 277.925 122.524 275.909 125.821 273.908C134.528 268.63 143.308 263.473 152.111 258.358C171.491 247.095 190.994 236.048 210.62 225.216C215.35 222.36 220.534 220.335 225.948 219.229C227.895 218.827 229.872 218.596 231.859 218.538C233.768 218.516 235.682 218.597 237.587 218.725C238.274 218.725 238.954 218.59 239.589 218.327C240.223 218.064 240.8 217.679 241.286 217.193C241.771 216.707 242.157 216.131 242.419 215.496C242.682 214.862 242.818 214.181 242.818 213.494C242.818 212.808 242.682 212.127 242.419 211.493C242.157 210.858 241.771 210.281 241.286 209.796C240.8 209.31 240.223 208.925 239.589 208.662C238.954 208.399 238.274 208.264 237.587 208.264C228.266 207.565 218.925 209.343 210.513 213.418C200.256 218.431 190.392 224.464 180.453 230.076C160.526 241.327 140.653 252.697 121.076 264.55C111.633 270.269 100.371 275.639 97.3372 287.217C95.6262 293.733 105.713 296.514 107.426 289.998V289.991Z" fill="#211715"/>
</g>
<path d="M394.38 352.65V363.57H374.64V372.25H389.2V382.68H374.64V402H360.92V352.65H394.38ZM413.878 350.2V402H400.158V350.2H413.878ZM459.211 381.91C459.211 382.983 459.141 384.057 459.001 385.13H433.031C433.171 387.277 433.755 388.887 434.781 389.96C435.855 390.987 437.208 391.5 438.841 391.5C441.128 391.5 442.761 390.473 443.741 388.42H458.371C457.765 391.127 456.575 393.553 454.801 395.7C453.075 397.8 450.881 399.457 448.221 400.67C445.561 401.883 442.621 402.49 439.401 402.49C435.528 402.49 432.075 401.673 429.041 400.04C426.055 398.407 423.698 396.073 421.971 393.04C420.291 390.007 419.451 386.437 419.451 382.33C419.451 378.223 420.291 374.677 421.971 371.69C423.651 368.657 425.985 366.323 428.971 364.69C432.005 363.057 435.481 362.24 439.401 362.24C443.275 362.24 446.705 363.033 449.691 364.62C452.678 366.207 455.011 368.493 456.691 371.48C458.371 374.42 459.211 377.897 459.211 381.91ZM445.211 378.48C445.211 376.8 444.651 375.493 443.531 374.56C442.411 373.58 441.011 373.09 439.331 373.09C437.651 373.09 436.275 373.557 435.201 374.49C434.128 375.377 433.428 376.707 433.101 378.48H445.211ZM502.346 381.91C502.346 382.983 502.276 384.057 502.136 385.13H476.166C476.306 387.277 476.89 388.887 477.916 389.96C478.99 390.987 480.343 391.5 481.976 391.5C484.263 391.5 485.896 390.473 486.876 388.42H501.506C500.9 391.127 499.71 393.553 497.936 395.7C496.21 397.8 494.016 399.457 491.356 400.67C488.696 401.883 485.756 402.49 482.536 402.49C478.663 402.49 475.21 401.673 472.176 400.04C469.19 398.407 466.833 396.073 465.106 393.04C463.426 390.007 462.586 386.437 462.586 382.33C462.586 378.223 463.426 374.677 465.106 371.69C466.786 368.657 469.12 366.323 472.106 364.69C475.14 363.057 478.616 362.24 482.536 362.24C486.41 362.24 489.84 363.033 492.826 364.62C495.813 366.207 498.146 368.493 499.826 371.48C501.506 374.42 502.346 377.897 502.346 381.91ZM488.346 378.48C488.346 376.8 487.786 375.493 486.666 374.56C485.546 373.58 484.146 373.09 482.466 373.09C480.786 373.09 479.41 373.557 478.336 374.49C477.263 375.377 476.563 376.707 476.236 378.48H488.346ZM531.131 390.31V402H525.181C515.148 402 510.131 397.03 510.131 387.09V374.14H505.301V362.73H510.131V353.21H523.921V362.73H531.061V374.14H523.921V387.3C523.921 388.373 524.154 389.143 524.621 389.61C525.134 390.077 525.974 390.31 527.141 390.31H531.131ZM551.144 391.5H566.474V402H537.424V352.65H551.144V391.5ZM578.739 359.09C576.312 359.09 574.352 358.437 572.859 357.13C571.412 355.777 570.689 354.097 570.689 352.09C570.689 350.037 571.412 348.333 572.859 346.98C574.352 345.627 576.312 344.95 578.739 344.95C581.119 344.95 583.032 345.627 584.479 346.98C585.972 348.333 586.719 350.037 586.719 352.09C586.719 354.097 585.972 355.777 584.479 357.13C583.032 358.437 581.119 359.09 578.739 359.09ZM585.529 362.73V402H571.809V362.73H585.529ZM619.032 362.38C623.559 362.38 627.152 363.897 629.812 366.93C632.472 369.917 633.802 373.977 633.802 379.11V402H620.082V380.93C620.082 378.69 619.499 376.94 618.332 375.68C617.165 374.373 615.602 373.72 613.642 373.72C611.589 373.72 609.979 374.373 608.812 375.68C607.645 376.94 607.062 378.69 607.062 380.93V402H593.342V362.73H607.062V368.33C608.275 366.557 609.909 365.133 611.962 364.06C614.015 362.94 616.372 362.38 619.032 362.38ZM665.9 402L655.05 385.9V402H641.33V350.2H655.05V378.13L665.9 362.73H682.35L666.88 382.47L682.63 402H665.9Z" fill="url(#paint0_linear_358_29)"/>
<rect x="570" y="337" width="26" height="23" fill="#FFFEFE"/>
<path fill-rule="evenodd" clip-rule="evenodd" d="M560.171 333.339L577.5 355L594.829 333.339C598.176 329.155 600 323.956 600 318.597V317.5C600 305.074 589.926 295 577.5 295C565.074 295 555 305.074 555 317.5V318.597C555 323.956 556.824 329.155 560.171 333.339ZM577.5 325C581.642 325 585 321.642 585 317.5C585 313.358 581.642 310 577.5 310C573.358 310 570 313.358 570 317.5C570 321.642 573.358 325 577.5 325Z" fill="url(#paint1_linear_358_29)"/>
<defs>
<linearGradient id="paint0_linear_358_29" x1="357" y1="377.5" x2="683" y2="377.5" gradientUnits="userSpaceOnUse">
<stop stop-color="#4B57D4"/>
<stop offset="1" stop-color="#D24ADE"/>
</linearGradient>
<linearGradient id="paint1_linear_358_29" x1="577.5" y1="295" x2="577.5" y2="355" gradientUnits="userSpaceOnUse">
<stop stop-color="#5156D5"/>
<stop offset="1" stop-color="#CF4ADE"/>
</linearGradient>
<clipPath id="clip0_358_29">
<rect width="800" height="800" fill="white"/>
</clipPath>
</defs>
</svg>
